<svg xmlns="http://www.w3.org/2000/svg" viewBox="0 0 512 512"><path d="M401.3 211.4l-233.9-.1v-70.9c0-48.9 39.7-88.6 88.6-88.6s88.6 39.7 88.6 88.6v16.3c0 11.3 9.1 20.4 20.4 20.4 11.3 0 20.4-9.1 20.4-20.4v-16.3C385.4 69.1 327.4 11 256 11S126.6 69.1 126.6 140.4v71h-15.9c-17.3 0-31.5 14.1-31.5 31.4v226.7c0 17.3 14.1 31.5 31.5 31.5h290.7c17.3 0 31.5-14.1 31.5-31.5V242.9c-.1-17.4-14.2-31.5-31.6-31.5zm-9.4 248.8H120.1v-208H392v208z"/><path d="M256 433.5c11.3 0 20.4-9.1 20.4-20.4v-49.8c0-11.3-9.1-20.4-20.4-20.4s-20.4 9.1-20.4 20.4v49.8c0 11.3 9.1 20.4 20.4 20.4z"/></svg>