<svg xmlns="http://www.w3.org/2000/svg" viewBox="0 0 100.90331 95.701317"><g fill-rule="evenodd"><path fill="#fda729" d="M10.327999.008797c27.098417.03492 54.200333-.06996 81.296553.05265 5.97168.412086 9.94818 6.444845 9.18513 12.125863-.035 24.744647.07 49.492807-.0526 74.235257-.41208 5.97168-6.44484 9.94818-12.12586 9.18513-26.45039-.0349-52.904285.07-79.352477-.0526-5.971679-.41208-9.948173-6.44484-9.185125-12.12586.03495-24.74465-.07-49.49281.05265-74.235261C.560802 4.096527 5.213649-.09976 10.327999.008797z"/><path fill="#fff" d="M43.100484 12.072396c4.462053.04292 8.932747-.08707 13.389238.06721 3.58227.863267 2.47566 4.98748 2.6488 7.695823-.0446 10.359188.0894 20.727298-.0672 31.080898-.86327 3.58227-4.987485 2.47565-7.695828 2.6488-3.183532-.13313-6.438286.29049-9.569479-.26006-3.077546-1.51675-1.725795-5.32769-2.024949-8.05842.04461-10.17403-.08935-20.357.06721-30.525442.281709-1.51045 1.715675-2.678353 3.252213-2.648804zM50.248091 62.810997c6.457491-.32657 10.802761 7.88997 6.947331 13.06171-3.3183 5.45936-12.461256 4.57905-14.664936-1.42264-2.408844-5.32204 1.857289-11.80512 7.717605-11.63907z"/></g></svg>