<svg xmlns="http://www.w3.org/2000/svg" viewBox="-40 0 512 512"><g fill-rule="evenodd"><path d="M185.035156 110.4375c-6.46875-5.175781-15.90625-4.128906-21.082031 2.339844l-32.132813 40.167968c-4.382812 5.480469-4.382812 13.261719 0 18.742188l32.132813 40.167969c4.894531 6.113281 14.269531 7.792969 21.082031 2.339843 6.472656-5.175781 7.519532-14.613281 2.34375-21.082031l-24.636718-30.796875 24.636718-30.796875c5.175782-6.46875 4.128906-15.910156-2.34375-21.082031zm0 0M261.570312 108.222656c-7.691406-3.078125-16.421874.664063-19.5 8.355469L209.9375 196.910156c-3.074219 7.691406.667969 16.421875 8.359375 19.496094 9.679687 3.875 17.324219-2.929688 19.496094-8.355469l32.132812-80.332031c3.078125-7.691406-.664062-16.421875-8.355469-19.496094zm0 0M315.914062 112.777344c-5.175781-6.46875-14.613281-7.515625-21.085937-2.34375-6.46875 5.175781-7.515625 14.617187-2.339844 21.085937L317.125 162.3125l-24.636719 30.796875c-5.175781 6.46875-4.128906 15.910156 2.339844 21.082031 2.765625 2.214844 6.074219 3.289063 9.363281 3.289063 4.398438 0 8.757813-1.925781 11.722656-5.628907l32.132813-40.167968c4.382813-5.480469 4.382813-13.261719 0-18.742188zm0 0"/><path d="M431.664062 209.632812C431.664062 18.371094 263.703125 0 235.257812 0c-108.625 0-179.023437 94.339844-179.023437 167.898438v26.722656c-8.914063 11.457031-34.382813 44.203125-46.503906 59.789062C3.457031 262.476562 0 272.546875 0 282.765625c0 19.183594 11.507812 36.1875 29.328125 43.324219l13.988281 5.59375 22.660156 63.445312c11.234376 31.464844 41.234376 52.605469 74.648438 52.605469h23.328125l13.226563 52.90625C178.851562 507.316406 184.851562 512 191.734375 512H384.53125c4.707031 0 9.144531-2.210938 11.976562-5.96875 2.835938-3.753906 3.742188-8.625 2.449219-13.152344l-30.636719-107.230468 49.746094-111.933594c9.023438-20.308594 13.597656-41.867188 13.597656-64.082032zm-41.011718 51.898438l-51.960938 116.910156c-1.425781 3.214844-1.679687 6.828125-.714844 10.210938L364.648438 482H203.445312l-13.226562-52.90625c-1.667969-6.675781-7.667969-11.359375-14.550781-11.359375H140.625c-20.769531 0-39.414062-13.140625-46.398438-32.695313l-24.933593-69.816406c-1.445313-4.050781-4.5625-7.289062-8.558594-8.882812l-20.261719-8.105469c-10.390625-4.160156-13.640625-16.953125-7.0625-25.402344 12.648438-16.269531 39.820313-51.203125 47.570313-61.167969 3.386719-4.359374 5.253906-9.796874 5.253906-15.3125v-28.453124C86.234375 127.605469 128.921875 30 235.273438 30c23.5625 0 166.390624 14.332031 166.390624 179.632812 0 17.992188-3.703124 35.453126-11.011718 51.898438zm0 0"/></g></svg>