<svg xmlns="http://www.w3.org/2000/svg" width="512" height="512" data-name="Layer 1"><path fill="#00efd1" d="M254.15 468.7c-.06-.07-.1-.15-.15-.22v-68.33h23.34l3.04-31.34a112.691 112.691 0 0 0 38.55-16.21l24.17 20.04 29.87-29.81-20.03-24.17a117.117 117.117 0 0 0 16.27-38.49l31.03-3.04v-42.26l-31.39-3.04c-.76-3.48-1.68-6.93-2.76-10.32 21.44-11 48.55-12.24 71.24-2.05a73.353 73.353 0 0 1 6.84 3.49c32.84 18.98 45.32 58.41 23.48 87.8 3.26 1.38 25.75 14.3 31.06 33.65 5.46 19.91-9.71 38.68-33.74 49.69 11.39 17.74 8.62 38.54-2.99 52.09-16.78 19.59-51.71 20.66-74.95 9.27l-.07.14a49.611 49.611 0 0 1-26.3 10.46c-15.64 1.22-28.09-5.8-32.65-8.72-2.94 6.51-13.05 25.65-30.4 28.05-18.32 2.53-38.24-8.74-43.46-16.68z"/><path fill="#00acea" d="M254.19 44.67c14.02-14.44 37.14-21.19 57.53-17.28 25.6 4.92 45.8 25.96 46.13 50.86a62.4 62.4 0 0 1 33.46 10.36c20.38 13.41 24.97 38.8 19.45 57.05a50.976 50.976 0 0 1-8.98 16.85s47.49 8.11 35.9 56.18l-.35.77c-22.69-10.19-49.8-8.95-71.24 2.05a112.57 112.57 0 0 0-13.52-28.17l20.04-24.17-29.51-29.81-24.17 20.04a115.8 115.8 0 0 0-38.55-16.21l-3.04-31.34H254V44.86c.06-.06.12-.13.19-.19z"/><path fill="#00efd1" d="M153.96 78.25v-.01c.31-24.93 18.79-45.97 44.41-50.89 20.39-3.91 42.7 2.88 55.82 17.32-.07.06-.13.13-.19.19v66.99h-18.98l-3.03 31.34a112.74 112.74 0 0 0-38.56 16.21l-24.17-20.04-29.87 29.81 20.04 24.17a117.75 117.75 0 0 0-13.47 28.19h-.01c-21.46-11.02-48.57-12.27-71.28-2.07l-.35-.77c-11.59-48.07 35.9-56.18 35.9-56.18a50.976 50.976 0 0 1-8.98-16.85c-5.52-18.25-.93-43.64 19.45-57.05a62.513 62.513 0 0 1 33.27-10.36z"/><path fill="#00acea" d="M124.53 455.66c-23.24 11.16-57.83 9.98-74.51-9.48-11.61-13.55-14.38-34.35-2.99-52.09C23 383.08 7.83 364.31 13.29 344.4c5.31-19.35 27.8-32.27 31.06-33.65-21.84-29.39-9.36-68.82 23.48-87.8a73.353 73.353 0 0 1 6.84-3.49c22.71-10.2 49.82-8.95 71.28 2.07q-1.635 5.07-2.8 10.3l-31.39 3.04v42.26l31.39 3.04a112.751 112.751 0 0 0 16.28 38.49l-20.04 24.17 29.87 29.81 24.17-20.04a115.853 115.853 0 0 0 38.56 16.21l3.03 31.34H254v68.33c.05.07.09.15.15.22-7.72 7.94-23.26 19.21-41.57 16.68-17.36-2.4-26.56-21.54-29.5-28.05-4.56 2.92-16.56 9.94-32.19 8.72a49.01 49.01 0 0 1-26.25-10.16z"/><path fill="#00efd1" d="M145.946 344.079a35.75 35.75 0 0 1-13.946-3.8 5.992 5.992 0 0 0-2.078-1.128 39.591 39.591 0 0 1-18.822-26.184 6 6 0 0 0-11.745 2.466 51.87 51.87 0 0 0 14.242 26.23c-6.217 2.859-11.017 7.73-13.061 13.857-2.748 8.23.007 17.3 7.19 23.669a6 6 0 1 0 7.962-8.978c-3.525-3.126-4.969-7.3-3.769-10.892 1.615-4.844 7.658-8.35 14.419-8.459a47.863 47.863 0 0 0 18.933 5.2c.115.006.229.009.341.009a6 6 0 0 0 .331-11.991zM183.966 378.968a6 6 0 1 0-3.912 11.344c5.947 2.051 19.694 7.71 18.913 15.947-.261 2.782-1.191 6.491-3.018 8.563a6 6 0 0 0 9 7.936c4.4-4.993 5.625-11.778 5.963-15.371 1.53-16.114-16.225-24.722-26.946-28.419z"/><path fill="#00acea" d="M408 308.328a6 6 0 0 0-7.105 4.639 39.594 39.594 0 0 1-18.822 26.188 5.992 5.992 0 0 0-2.073 1.127 35.74 35.74 0 0 1-13.946 3.8 6 6 0 0 0 .331 11.991c.112 0 .226 0 .341-.009a47.854 47.854 0 0 0 18.931-5.2c6.739.114 12.806 3.615 14.421 8.459 1.2 3.592-.244 7.765-3.769 10.891a6 6 0 1 0 7.962 8.978c7.183-6.37 9.938-15.439 7.19-23.668-2.043-6.122-6.854-10.992-13.067-13.853a51.861 51.861 0 0 0 14.248-26.235 6 6 0 0 0-4.642-7.108zM328.034 378.968c-17.305 5.968-28.134 18.377-26.948 30.872a22.954 22.954 0 0 0 5.963 12.918 6 6 0 0 0 9-7.936 11.151 11.151 0 0 1-3.018-6.109c-.543-5.715 5.78-13.871 18.913-18.4a6 6 0 0 0-3.912-11.344z"/><path fill="#f4b844" d="M254 111.85h23.34l3.04 31.34a115.8 115.8 0 0 1 38.55 16.21l24.17-20.04 29.51 29.81-20.04 24.17a112.57 112.57 0 0 1 13.52 28.17c1.08 3.39 2 6.84 2.76 10.32l31.39 3.04v42.26l-31.03 3.04a117.117 117.117 0 0 1-16.27 38.49l20.03 24.17-29.87 29.81-24.17-20.04a112.691 112.691 0 0 1-38.55 16.21l-3.04 31.34h-42.32l-3.03-31.34a115.853 115.853 0 0 1-38.56-16.21l-24.17 20.04-29.87-29.81 20.04-24.17a112.751 112.751 0 0 1-16.28-38.49l-31.39-3.04v-42.26l31.39-3.04q1.155-5.22 2.8-10.3h.01a117.75 117.75 0 0 1 13.47-28.19l-20.04-24.17 29.87-29.81 24.17 20.04a112.74 112.74 0 0 1 38.56-16.21l3.03-31.34z"/><ellipse cx="256.03" cy="256" fill="#fedb41" rx="82.03" ry="81.91"/><g fill="#00acea"><path d="M236.955 286.71a5.97 5.97 0 0 1-3.613-1.214l-32.95-24.91a6 6 0 0 1 0-9.572l32.95-24.92a6 6 0 0 1 7.238 9.572L213.958 255.8l26.62 20.125a6 6 0 0 1-3.623 10.786zM275.1 286.71a6 6 0 0 1-3.623-10.786L298.1 255.8l-26.62-20.134a6 6 0 0 1 7.239-9.572l32.95 24.92a6 6 0 0 1 0 9.572l-32.95 24.91a5.979 5.979 0 0 1-3.619 1.214zM250.388 299.161a6.066 6.066 0 0 1-.906-.068 6 6 0 0 1-5.035-6.83l11.241-74.321a6 6 0 0 1 11.865 1.795l-11.241 74.321a6 6 0 0 1-5.924 5.103z"/></g></svg>